<svg width="450" height="450" viewBox="0 0 450 450" fill="none" xmlns="http://www.w3.org/2000/svg">
<path d="M175.111 101.021C126.445 92.1577 87.9653 101.434 72.6292 127.997C61.1856 147.819 64.4568 174.099 80.5639 202.19C80.8819 202.774 81.3133 203.288 81.8327 203.702C82.352 204.117 82.9489 204.423 83.5884 204.604C84.2278 204.785 84.8969 204.836 85.5564 204.755C86.216 204.674 86.8526 204.462 87.429 204.131C88.0055 203.8 88.5101 203.358 88.9133 202.83C89.3165 202.302 89.6102 201.698 89.7771 201.055C89.944 200.412 89.9808 199.742 89.8853 199.084C89.7898 198.427 89.5639 197.795 89.221 197.225C74.7139 171.92 71.89 149.241 81.2731 132.988C94.0136 110.922 128.335 102.647 173.322 110.84C174.614 111.055 175.94 110.753 177.012 109.999C178.084 109.246 178.817 108.101 179.051 106.811C179.286 105.522 179.005 104.192 178.267 103.109C177.53 102.025 176.396 101.275 175.111 101.021V101.021ZM105.871 236.336C125.549 257.96 151.114 278.244 180.27 295.075C250.865 335.834 326.02 346.728 363.059 321.473C363.613 321.109 364.089 320.639 364.459 320.089C364.829 319.539 365.086 318.921 365.215 318.271C365.344 317.621 365.342 316.952 365.209 316.303C365.077 315.653 364.816 315.037 364.443 314.489C364.069 313.942 363.59 313.474 363.034 313.113C362.478 312.753 361.856 312.507 361.203 312.389C360.551 312.272 359.882 312.286 359.235 312.43C358.588 312.573 357.976 312.845 357.435 313.228C324.285 335.831 252.895 325.482 185.261 286.433C156.977 270.103 132.22 250.461 113.253 229.617C112.813 229.13 112.281 228.734 111.687 228.452C111.093 228.171 110.45 228.009 109.794 227.977C109.137 227.945 108.481 228.043 107.863 228.265C107.244 228.487 106.676 228.829 106.19 229.271C105.704 229.713 105.31 230.247 105.031 230.842C104.752 231.437 104.593 232.081 104.563 232.737C104.533 233.393 104.634 234.049 104.858 234.667C105.083 235.284 105.427 235.852 105.871 236.336V236.336Z" fill="#2B2E3A"/>
<path d="M351.243 230.265C383.109 192.62 394.235 154.758 378.93 128.251C367.67 108.746 343.864 98.4476 312.224 98.0359C310.913 98.0378 309.655 98.5557 308.723 99.4775C307.79 100.399 307.258 101.651 307.241 102.962C307.224 104.273 307.724 105.539 308.632 106.484C309.54 107.43 310.784 107.98 312.095 108.016C340.55 108.387 361.06 117.259 370.288 133.242C382.999 155.259 373.077 189.023 343.625 223.816C343.192 224.315 342.863 224.895 342.657 225.522C342.45 226.149 342.37 226.811 342.421 227.469C342.472 228.127 342.653 228.769 342.954 229.357C343.255 229.944 343.669 230.466 344.173 230.893C344.677 231.32 345.26 231.642 345.89 231.841C346.519 232.041 347.181 232.113 347.839 232.055C348.497 231.997 349.136 231.808 349.72 231.501C350.305 231.194 350.822 230.774 351.243 230.265ZM269.349 102.683C240.537 108.856 209.868 120.927 180.416 137.93C107.54 180.005 60.001 242.047 66.6033 287.034C66.6913 287.689 66.9084 288.319 67.242 288.889C67.5756 289.459 68.019 289.958 68.5466 290.355C69.0742 290.753 69.6754 291.041 70.3154 291.205C70.9554 291.368 71.6215 291.403 72.275 291.307C72.9285 291.211 73.5565 290.986 74.1225 290.646C74.6885 290.305 75.1813 289.856 75.5724 289.323C75.9634 288.791 76.2448 288.186 76.4004 287.544C76.556 286.902 76.5826 286.236 76.4787 285.584C70.6156 245.641 115.679 186.832 185.407 146.574C213.978 130.078 243.673 118.391 271.439 112.442C272.089 112.314 272.707 112.058 273.257 111.688C273.806 111.319 274.277 110.844 274.642 110.291C275.006 109.738 275.257 109.118 275.379 108.467C275.501 107.816 275.493 107.147 275.354 106.5C275.215 105.852 274.949 105.239 274.571 104.695C274.193 104.151 273.71 103.688 273.151 103.333C272.592 102.978 271.968 102.737 271.315 102.626C270.663 102.514 269.994 102.533 269.349 102.683V102.683Z" fill="#2B2E3A"/>
<path d="M303.47 309.12C312.097 281.559 316.729 249.763 316.729 216.63C316.729 133.954 287.791 62.6835 246.576 44.3831C245.372 43.8788 244.018 43.8663 242.805 44.3482C241.592 44.8302 240.616 45.7682 240.086 46.9613C239.556 48.1544 239.515 49.5075 239.971 50.7306C240.427 51.9537 241.344 52.9494 242.526 53.5043C279.286 69.8285 306.747 137.466 306.747 216.63C306.747 248.775 302.261 279.565 293.946 306.139C293.74 306.768 293.66 307.431 293.712 308.09C293.764 308.75 293.947 309.392 294.249 309.98C294.552 310.568 294.968 311.091 295.474 311.517C295.98 311.942 296.566 312.264 297.197 312.461C297.828 312.659 298.492 312.729 299.151 312.667C299.81 312.606 300.449 312.414 301.033 312.103C301.617 311.793 302.133 311.369 302.552 310.857C302.971 310.345 303.283 309.754 303.472 309.12H303.47ZM397.459 304.232C397.459 291.041 386.766 280.348 373.574 280.348C360.383 280.348 349.69 291.041 349.69 304.232C349.69 317.424 360.383 328.117 373.574 328.117C386.766 328.117 397.459 317.424 397.459 304.232ZM387.479 304.232C387.479 306.058 387.119 307.866 386.42 309.553C385.722 311.24 384.697 312.773 383.406 314.064C382.115 315.355 380.582 316.38 378.895 317.078C377.208 317.777 375.4 318.137 373.574 318.137C371.748 318.137 369.94 317.777 368.253 317.078C366.566 316.38 365.033 315.355 363.742 314.064C362.451 312.773 361.427 311.24 360.728 309.553C360.029 307.866 359.67 306.058 359.67 304.232C359.67 300.545 361.135 297.008 363.742 294.4C366.35 291.793 369.887 290.328 373.574 290.328C377.262 290.328 380.799 291.793 383.406 294.4C386.014 297.008 387.479 300.545 387.479 304.232ZM77.7886 328.117C90.982 328.117 101.675 317.424 101.675 304.232C101.675 291.041 90.9801 280.348 77.7886 280.348C64.599 280.348 53.904 291.041 53.904 304.232C53.904 317.424 64.599 328.117 77.7886 328.117ZM77.7886 318.137C74.1009 318.137 70.5643 316.672 67.9567 314.064C65.3491 311.457 63.8841 307.92 63.8841 304.232C63.8841 300.545 65.3491 297.008 67.9567 294.4C70.5643 291.793 74.1009 290.328 77.7886 290.328C81.4763 290.328 85.013 291.793 87.6206 294.4C90.2282 297.008 91.6931 300.545 91.6931 304.232C91.6931 307.92 90.2282 311.457 87.6206 314.064C85.013 316.672 81.4763 318.137 77.7886 318.137Z" fill="#2B2E3A"/>
<path d="M225.854 68.7466C239.045 68.7466 249.738 58.0534 249.738 44.8619C249.738 31.6705 239.045 20.9773 225.854 20.9773C212.662 20.9773 201.969 31.6705 201.969 44.8619C201.969 58.0534 212.662 68.7466 225.854 68.7466ZM225.854 58.7664C222.166 58.7664 218.629 57.3015 216.022 54.6939C213.414 52.0863 211.949 48.5496 211.949 44.8619C211.949 41.1743 213.414 37.6376 216.022 35.03C218.629 32.4224 222.166 30.9575 225.854 30.9575C229.541 30.9575 233.078 32.4224 235.686 35.03C238.293 37.6376 239.758 41.1743 239.758 44.8619C239.758 48.5496 238.293 52.0863 235.686 54.6939C233.078 57.3015 229.541 58.7664 225.854 58.7664Z" fill="#2B2E3A"/>
<path d="M269.53 208.778L177.913 226.73C176.407 227.025 175.292 228.301 175.201 229.833L169.439 256.782C172.323 260.842 172.444 276.397 172.444 276.397L169.565 325.016C169.433 327.257 171.492 328.997 173.68 328.493L199.187 322.606C201.574 322.056 203.73 324.158 203.24 326.558L195.662 363.667C195.152 366.165 197.496 368.3 199.935 367.559L215.69 362.773C218.132 362.031 220.479 364.173 219.963 366.673L207.919 424.963C207.166 428.609 212.016 430.597 214.038 427.471L215.389 425.384L290.044 276.397C291.294 273.903 289.138 271.058 286.398 271.587L260.143 276.654C257.675 277.13 255.576 274.832 256.273 272.418C256.273 272.418 260.143 260.325 265.742 254.257C276.853 242.217 273.409 213.012 273.409 213.012C274.106 210.594 272 208.294 269.53 208.778Z" fill="url(#vite-gradient)"/>
<path d="M225.854 393.39C195.204 393.39 167.947 364.744 151.284 318.221H151.286C151.049 317.601 150.939 316.939 150.961 316.276C150.984 315.612 151.138 314.96 151.416 314.356C151.694 313.753 152.089 313.211 152.579 312.763C153.068 312.315 153.643 311.968 154.268 311.745C154.893 311.521 155.557 311.424 156.22 311.46C156.883 311.496 157.532 311.664 158.129 311.954C158.727 312.244 159.26 312.65 159.698 313.149C160.137 313.647 160.471 314.229 160.682 314.858C176.082 357.859 200.393 383.408 225.854 383.408C244.165 383.408 261.968 370.291 276.462 346.182C276.794 345.61 277.237 345.11 277.765 344.711C278.292 344.312 278.894 344.021 279.535 343.857C280.176 343.692 280.843 343.657 281.497 343.752C282.152 343.848 282.781 344.073 283.348 344.413C283.915 344.754 284.408 345.204 284.8 345.738C285.191 346.271 285.473 346.877 285.628 347.52C285.783 348.163 285.809 348.83 285.704 349.484C285.599 350.137 285.365 350.762 285.016 351.324C268.888 378.151 248.207 393.39 225.854 393.39Z" fill="#2B2E3A"/>
<path d="M271.906 167.483C259.49 149.599 234.771 144.359 217.001 155.636L185.675 175.685C177.132 181.039 171.208 189.81 169.5 199.72C168.019 208.036 169.272 216.579 173.259 223.983C170.525 228.084 168.702 232.64 167.905 237.425C166.082 247.563 168.475 258.043 174.398 266.358C186.928 284.242 211.533 289.482 229.303 278.205L260.629 258.271C269.172 252.917 275.096 244.146 276.804 234.235C278.285 225.92 277.032 217.376 273.045 209.972C275.779 205.871 277.602 201.315 278.399 196.531C280.336 186.279 277.943 175.799 271.906 167.483Z" fill="#FF3E00"/>
<path d="M213.927 268.068C203.789 270.688 193.195 266.701 187.272 258.158C183.626 253.146 182.259 246.88 183.285 240.729C183.512 239.704 183.74 238.793 183.968 237.767L184.538 235.945L186.132 237.084C189.891 239.818 193.992 241.868 198.435 243.235L199.574 243.577L199.46 244.716C199.346 246.311 199.802 248.02 200.713 249.386C202.536 252.006 205.725 253.259 208.801 252.462C209.484 252.234 210.168 252.006 210.737 251.665L241.949 231.73C243.544 230.705 244.569 229.224 244.911 227.402C245.252 225.579 244.797 223.642 243.772 222.162C241.949 219.542 238.759 218.403 235.684 219.2C235 219.428 234.317 219.656 233.747 219.997L221.787 227.629C219.85 228.882 217.686 229.794 215.408 230.363C205.27 232.983 194.676 228.996 188.752 220.453C185.221 215.441 183.74 209.176 184.879 203.025C185.905 197.101 189.55 191.747 194.676 188.558L226.001 168.623C227.938 167.37 230.102 166.459 232.38 165.775C242.519 163.156 253.112 167.142 259.036 175.686C262.681 180.698 264.048 186.963 263.023 193.114C262.795 194.139 262.567 195.051 262.225 196.076L261.656 197.898L260.061 196.759C256.302 194.026 252.201 191.975 247.758 190.608L246.619 190.266L246.733 189.127C246.847 187.533 246.392 185.824 245.48 184.457C243.658 181.837 240.468 180.698 237.393 181.495C236.709 181.723 236.026 181.951 235.456 182.293L204.244 202.227C202.65 203.252 201.624 204.733 201.283 206.556C200.941 208.378 201.397 210.315 202.422 211.796C204.244 214.416 207.434 215.555 210.509 214.757C211.193 214.53 211.876 214.302 212.446 213.96L224.407 206.328C226.343 205.075 228.507 204.164 230.786 203.48C240.924 200.86 251.518 204.847 257.441 213.39C261.086 218.403 262.453 224.668 261.428 230.819C260.403 236.742 256.758 242.096 251.631 245.286L220.306 265.22C218.369 266.473 216.205 267.384 213.927 268.068Z" fill="white"/>
<defs>
<linearGradient id="vite-gradient" x1="203.38" y1="213.652" x2="231.252" y2="404.854" gradientUnits="userSpaceOnUse">
<stop offset="0.364583" stop-color="#FF3E00"/>
<stop offset="0.770833" stop-color="#FFDD35"/>
</linearGradient>
</defs>
</svg>
